<?xml version="1.0" encoding="utf-8"?>
<!-- Generator: Adobe Illustrator 26.0.1, SVG Export Plug-In . SVG Version: 6.00 Build 0)  -->
<svg version="1.1" id="Layer_1" xmlns="http://www.w3.org/2000/svg" xmlns:xlink="http://www.w3.org/1999/xlink" x="0px" y="0px"
	 viewBox="0 0 780 440" style="enable-background:new 0 0 780 440;" xml:space="preserve">
<style type="text/css">
	.st0{fill:#F76054;}
	.st1{fill:#FFFFFF;stroke:#000000;stroke-linejoin:round;stroke-miterlimit:10;}
	.st2{fill:none;stroke:#000000;stroke-miterlimit:10;stroke-dasharray:5.014;}
	.st3{fill:#C63434;stroke:#000000;stroke-miterlimit:10;}
	.st4{fill:#FFFFFF;}
	.st5{fill:#FFFFFF;stroke:#000000;stroke-miterlimit:10;}
	.st6{fill:#FF7F6E;stroke:#000000;stroke-miterlimit:10;}
	.st7{fill:#FF7F6E;stroke:#002138;stroke-miterlimit:10;}
	.st8{clip-path:url(#SVGID_00000083060940082922194620000009264148771584893104_);}
	.st9{fill:#FFFFFF;stroke:#162020;stroke-linecap:round;stroke-linejoin:round;stroke-miterlimit:10;}
	.st10{fill:none;stroke:#002138;stroke-linecap:round;stroke-linejoin:round;stroke-miterlimit:10;}
	.st11{fill:none;stroke:#002138;stroke-miterlimit:10;}
	.st12{fill:none;stroke:#162020;stroke-linecap:round;stroke-linejoin:round;stroke-miterlimit:10;}
	.st13{fill:#FFFFFF;stroke:#162020;stroke-miterlimit:10;}
	.st14{fill:#FF7F6E;stroke:#162020;stroke-miterlimit:10;}
</style>
<rect x="0" y="0" class="st0" width="780" height="440"/>
<g>
	<g>
		<circle class="st1" cx="179.1" cy="214.7" r="7.8"/>
		<path class="st1" d="M194.1,243.6c0-9.8-6.6-17.9-14.6-17.9c-8.1,0-14.6,8-14.6,17.9H194.1z"/>
	</g>
</g>
<g>
	<path class="st2" d="M321.9,284.9V179.2c0-39.3-31.9-71.2-71.2-71.2h0c-36.3,0-66.3,27.2-70.7,62.3c-0.4,2.9-0.6,5.9-0.6,8.9"/>
	<path class="st2" d="M606.8,243.3v14.5c0,39.3-31.9,71.2-71.2,71.2h0c-39.3,0-71.2-31.9-71.2-71.2V152.1"/>
</g>
<path class="st3" d="M494.6,167.4c-2.5-9.4-9.9-16.8-19.3-19.3c-17-4.6-85.3-4.6-85.3-4.6s-68.3,0-85.3,4.6
	c-9.4,2.5-16.8,9.9-19.3,19.3c-4.6,17-4.6,52.6-4.6,52.6s0,35.5,4.6,52.6c2.5,9.4,9.9,16.8,19.3,19.3c17,4.6,85.3,4.6,85.3,4.6
	s68.3,0,85.3-4.6c9.4-2.5,16.8-9.9,19.3-19.3c4.6-17,4.6-52.6,4.6-52.6S499.2,184.5,494.6,167.4z"/>
<polygon class="st4" points="368.2,252.8 424.9,220 368.2,187.2 "/>
<g>
	<path class="st3" d="M193.6,234.6c-3.7,3.4-8.5,5.3-13.5,5.3c-0.2,0-0.4,0-0.6,0c-5.1-0.2-9.9-2.3-13.5-5.9l0,0
		c-3.6-3.6-5.6-8.4-5.8-13.5h-20.7c0.1,10.6,4.4,20.7,11.8,28.1l0,0c7.5,7.5,17.6,11.8,28.1,11.9c0.2,0,0.4,0,0.6,0
		c10.5,0,20.6-4.1,28.1-11.3L193.6,234.6z"/>
	<path class="st5" d="M208.7,191.2c-7.6-7.6-17.9-11.8-28.6-11.8c-0.2,0-0.4,0-0.6,0v20.7c0.2,0,0.4,0,0.6,0
		c11,0,19.9,8.9,19.9,19.9c0,0.2,0,0.3,0,0.5c-0.1,5.4-2.4,10.5-6.4,14.1l14.6,14.6c7.9-7.5,12.3-17.9,12.5-28.8c0-0.2,0-0.3,0-0.5
		C220.7,209.2,216.4,198.8,208.7,191.2z"/>
	<path class="st6" d="M150.8,191.9c-7.3,7.6-11.3,17.6-11.3,28.1c0,0.2,0,0.3,0,0.5h20.7c0-0.2,0-0.3,0-0.5
		c0-10.7,8.6-19.5,19.3-19.9v-20.7C168.6,179.6,158.3,184.1,150.8,191.9z"/>
</g>
<g>
	<circle class="st7" cx="606.8" cy="220" r="41.5"/>
	<g>
		<defs>
			<circle id="SVGID_1_" cx="606.8" cy="220" r="41.5"/>
		</defs>
		<clipPath id="SVGID_00000114057092189635876590000009882533014029587115_">
			<use xlink:href="#SVGID_1_"  style="overflow:visible;"/>
		</clipPath>
		<g style="clip-path:url(#SVGID_00000114057092189635876590000009882533014029587115_);">
			<path class="st9" d="M612.7,274.4v-48.6c0-0.6-0.5-1-1-1h-10.4c-0.6,0-1,0.5-1,1v48.6H612.7z M629.4,274.4v-61.1c0-0.6-0.5-1-1-1
				h-10.4c-0.6,0-1,0.5-1,1v61.1H629.4z M596.1,274.4v-38.2c0-0.6-0.5-1-1-1h-10.4c-0.6,0-1,0.5-1,1v38.2H596.1z"/>
			<g>
				<line class="st10" x1="581.6" y1="229.2" x2="629.8" y2="198"/>
				<line class="st10" x1="629.8" y1="198" x2="628.2" y2="205.6"/>
				<line class="st10" x1="629.6" y1="198" x2="622.1" y2="196.4"/>
			</g>
		</g>
	</g>
	<circle class="st11" cx="606.8" cy="220" r="41.5"/>
</g>
<g>
	<g>
		<line class="st12" x1="159.6" y1="129.3" x2="159.6" y2="138.2"/>
		<line class="st12" x1="159.6" y1="129.3" x2="159.6" y2="138.2"/>
		<line class="st12" x1="164" y1="133.8" x2="155.1" y2="133.8"/>
	</g>
	<circle class="st12" cx="172.5" cy="110" r="4"/>
	<polyline class="st12" points="138.4,114.4 141.3,118.4 150.4,107.9 	"/>
</g>
<g>
	<g>
		<line class="st12" x1="631.3" y1="309.5" x2="631.3" y2="300.5"/>
		<line class="st12" x1="631.3" y1="309.5" x2="631.3" y2="300.5"/>
		<line class="st12" x1="635.7" y1="305" x2="626.9" y2="305"/>
	</g>
	<circle class="st12" cx="644.3" cy="328.8" r="4"/>
	<polyline class="st12" points="610.1,327 613,330.9 622.1,320.4 	"/>
</g>
<g>
	<circle class="st13" cx="248.6" cy="105.3" r="18.9"/>
	<path class="st14" d="M248.6,98.2c1.9,0,3.5,1.2,3.5,2.7c0,0.7,0.6,1.3,1.4,1.3s1.4-0.6,1.4-1.3c0-2.5-2.1-4.6-4.9-5.2v-1.5
		c0-0.7-0.6-1.3-1.4-1.3s-1.4,0.6-1.4,1.3v1.5c-2.8,0.5-4.9,2.6-4.9,5.2c0,2.4,1.5,4.3,3.9,5l3.9,1.2c1.3,0.4,2,1.3,2,2.6
		c0,1.5-1.5,2.7-3.5,2.7c-1.9,0-3.5-1.2-3.5-2.7c0-0.7-0.6-1.3-1.4-1.3s-1.4,0.6-1.4,1.3c0,2.5,2.1,4.6,4.9,5.2v1.5
		c0,0.7,0.6,1.3,1.4,1.3s1.4-0.6,1.4-1.3v-1.5c2.8-0.5,4.9-2.6,4.9-5.2c0-2.4-1.5-4.3-3.9-5l-3.9-1.2c-1.3-0.4-2-1.3-2-2.6
		C245.1,99.4,246.7,98.2,248.6,98.2z"/>
</g>
<g>
	<circle class="st13" cx="535.6" cy="329" r="18.9"/>
	<path class="st14" d="M535.6,322c1.9,0,3.5,1.2,3.5,2.7c0,0.7,0.6,1.3,1.4,1.3s1.4-0.6,1.4-1.3c0-2.5-2.1-4.6-4.9-5.2V318
		c0-0.7-0.6-1.3-1.4-1.3s-1.4,0.6-1.4,1.3v1.5c-2.8,0.5-4.9,2.6-4.9,5.2c0,2.4,1.5,4.3,3.9,5l3.9,1.2c1.3,0.4,2,1.3,2,2.6
		c0,1.5-1.5,2.7-3.5,2.7s-3.5-1.2-3.5-2.7c0-0.7-0.6-1.3-1.4-1.3s-1.4,0.6-1.4,1.3c0,2.5,2.1,4.6,4.9,5.2v1.5c0,0.7,0.6,1.3,1.4,1.3
		s1.4-0.6,1.4-1.3v-1.5c2.8-0.5,4.9-2.6,4.9-5.2c0-2.4-1.5-4.3-3.9-5l-3.9-1.2c-1.3-0.4-2-1.3-2-2.6
		C532.1,323.2,533.7,322,535.6,322z"/>
</g>
</svg>
